:SAMPLES-PER-SECOND 30
:FULLY-SPECIFIED
:DEGREES
267
root  -20.3215 38.2055 10.0254 177.342 85.9444 -175.806
RightUpLeg  25.5723 -16.3063 -5.68604
RightLeg  13.5284 2.94775 2.70579
RightFoot  -20.8953 0.481418 7.30113
RightToes  2.96859e-009 0 -3.6325e-017
Spine  -0.372835 1.94412 3.58479
Spine1  14.6044 2.9799 -3.37791
HEad  -1.73029 -0.502128 -2.0952
LeftShoulder1  -0.51712 4.9581 -29.3845
LeftArm  -12.1125 9.5658 -34.1907
LeftForeArm  92.5234 -77.3209 -118.16
LeftHand  -0.0371201 5.62822 -4.05775
RightShoulder  -0.806129 -5.80155 28.4493
RightArm  -16.0435 -16.1951 36.1191
RightForeArm  111.396 70.1919 145.249
RightHand  -0.0233504 -4.68623 0.545236
LeftUpLeg  -16.0432 2.59324 -6.78888
LeftLeg  10.648 10.2956 0.527259
LeftFoot  9.07205 -2.21055 12.1869
LeftToes  3.24686e-010 -7.02549e-012 1.39809e-011
268
root  -18.9306 38.0346 10.0776 149.804 85.2513 157.557
RightUpLeg  24.5434 -18.2429 -10.0603
RightLeg  23.2628 7.53921 3.04245
RightFoot  -19.8522 0.834104 13.5653
RightToes  2.96859e-009 0 -3.6325e-017
Spine  0.408886 2.0718 -0.0242429
Spine1  14.4833 2.70426 -2.73346
HEad  -0.634546 -0.582385 -1.69128
LeftShoulder1  -0.578609 5.11408 -29.7797
LeftArm  -12.2548 10.4791 -33.782
LeftForeArm  93.8127 -77.2571 -118.905
LeftHand  -0.0326312 5.4828 -4.52523
RightShoulder  -0.945053 -6.13057 29.4139
RightArm  -15.2597 -15.8739 35.6624
RightForeArm  110.226 71.048 143.415
RightHand  -0.0230271 -5.11192 0.82424
LeftUpLeg  -16.0705 4.78429 -9.78219
LeftLeg  17.1124 8.28147 2.56217
LeftFoot  5.33914 -2.02589 13.5237
LeftToes  3.24686e-010 -7.02549e-012 1.39809e-011
269
root  -17.7149 37.9838 10.0565 142.269 84.6021 150.385
RightUpLeg  19.2052 -14.8593 -10.4045
RightLeg  36.0092 6.33791 4.6579
RightFoot  -12.6611 0.158075 19.9728
RightToes  2.96859e-009 0 -3.6325e-017
Spine  1.5159 2.08106 -1.26174
Spine1  13.9395 2.47192 -2.96181
HEad  -0.160366 -0.195154 -1.78154
LeftShoulder1  -0.52836 4.96103 -30.1042
LeftArm  -12.6918 11.3359 -33.8391
LeftForeArm  92.1754 -77.491 -116.969
LeftHand  -0.0353505 5.40306 -4.69357
RightShoulder  -0.973152 -6.19236 29.6145
RightArm  -14.6811 -15.9142 35.8468
RightForeArm  108.633 71.584 142.06
RightHand  -0.0267914 -5.98439 -0.630418
LeftUpLeg  -15.3949 6.69363 -10.8206
LeftLeg  20.5321 6.71961 2.98685
LeftFoot  2.33839 -1.73309 14.2241
LeftToes  3.24686e-010 -7.02549e-012 1.39809e-011
270
root  -16.6127 37.9959 9.99187 126.255 84.6375 134.674
RightUpLeg  11.0795 -9.96328 -10.5898
RightLeg  50.1985 5.37675 6.62597
RightFoot  0.41382 -1.74623 17.9192
RightToes  2.96859e-009 0 -3.6325e-017
Spine  2.69992 2.46043 -1.88967
Spine1  13.9134 2.86942 -3.93344
HEad  -0.824445 0.393978 -2.98301
LeftShoulder1  -0.497919 4.87762 -30.0501
LeftArm  -13.1292 11.6641 -34.0889
LeftForeArm  91.4982 -77.5566 -116.333
LeftHand  -0.0424999 5.55348 -4.62727
RightShoulder  -0.838553 -5.86515 28.9144
RightArm  -14.7399 -15.7902 36.485
RightForeArm  109.402 71.6476 142.017
RightHand  -0.0224538 -4.68811 0.862051
LeftUpLeg  -14.0021 8.09419 -11.5744
LeftLeg  22.2182 6.81803 3.1733
LeftFoot  -0.421452 -1.31773 13.7378
LeftToes  3.24686e-010 -7.02549e-012 1.39809e-011
271
root  -15.5535 38.0267 9.9475 112.958 83.9079 121.629
RightUpLeg  3.33828 -5.44814 -11.0508
RightLeg  61.0693 4.99661 9.15767
RightFoot  10.7349 -2.48607 12.8365
RightToes  2.96859e-009 0 -3.6325e-017
Spine  3.90725 2.67145 -3.35937
Spine1  13.7129 2.92048 -4.45344
HEad  -1.71748 0.635098 -3.39933
LeftShoulder1  -0.382351 4.57982 -29.3923
LeftArm  -13.4094 11.9982 -34.4296
LeftForeArm  92.3321 -77.4371 -117.365
LeftHand  -0.0308837 5.31834 -3.98964
RightShoulder  -0.878142 -5.97568 28.9292
RightArm  -14.2718 -14.4284 36.0631
RightForeArm  108.779 71.6714 141.878
RightHand  -0.0262598 -4.95972 0.289736
LeftUpLeg  -12.2087 8.01111 -12.513
LeftLeg  22.9833 7.87387 3.42611
LeftFoot  -2.58986 -0.999318 13.2047
LeftToes  3.24686e-010 -7.02549e-012 1.39809e-011
272
root  -14.4754 38.1646 9.89803 116.318 83.2781 125.707
RightUpLeg  -1.96694 -2.89079 -11.3036
RightLeg  67.6608 3.80718 9.46579
RightFoot  6.47816 -2.02908 13.1618
RightToes  2.96859e-009 0 -3.6325e-017
Spine  5.00716 2.19113 -4.88083
Spine1  13.8757 1.80463 -3.36079
HEad  -2.04438 1.28377 -4.12372
LeftShoulder1  -0.446759 4.75302 -29.6119
LeftArm  -13.5502 11.6416 -34.4997
LeftForeArm  91.8377 -77.4809 -116.93
LeftHand  -0.0430692 5.59234 -4.38059
RightShoulder  -0.81505 -5.83768 28.3163
RightArm  -14.0612 -13.1078 36.297
RightForeArm  107.787 72.0858 140.789
RightHand  -0.0300649 -5.35217 0.0778012
LeftUpLeg  -9.38066 7.12016 -12.4369
LeftLeg  22.9004 8.3815 3.23613
LeftFoot  -4.32361 -0.759717 12.7588
LeftToes  3.24686e-010 -7.02549e-012 1.39809e-011
273
root  -13.3795 38.3787 9.87794 126.382 83.3317 136.497
RightUpLeg  -6.69936 -0.838192 -10.1673
RightLeg  70.2468 3.09303 8.78158
RightFoot  5.78856 -1.65065 11.2024
RightToes  2.96859e-009 0 -3.6325e-017
Spine  5.9754 1.76219 -4.79607
Spine1  13.9532 0.964057 -2.67564
HEad  -2.26632 1.18039 -4.30384
LeftShoulder1  -0.401928 4.6309 -29.4877
LeftArm  -13.455 10.7008 -34.975
LeftForeArm  89.2327 -77.7839 -114.033
LeftHand  -0.0338441 5.3812 -4.18165
RightShoulder  -0.841645 -5.9323 28.0527
RightArm  -14.523 -12.5594 36.6134
RightForeArm  107.518 72.2185 140.433
RightHand  -0.0249531 -5.18579 0.367749
LeftUpLeg  -6.35811 7.08606 -11.0263
LeftLeg  22.4902 7.64517 2.49455
LeftFoot  -5.99759 -0.543471 12.3754
LeftToes  3.24686e-010 -7.02549e-012 1.39809e-011
274
root  -12.2371 38.6482 9.82943 143.064 82.9045 154.874
RightUpLeg  -9.01447 0.446659 -8.50389
RightLeg  68.8541 2.69121 6.98606
RightFoot  5.24366 -1.35406 9.50368
RightToes  2.96859e-009 0 -3.6325e-017
Spine  8.48836 1.08514 -3.47366
Spine1  12.8865 0.113553 -2.60572
HEad  -2.14796 0.350565 -3.5209
LeftShoulder1  -0.330648 4.44456 -29.0033
LeftArm  -13.1032 9.8489 -35.6349
LeftForeArm  87.1617 -78.0228 -111.509
LeftHand  -0.0397627 5.49239 -4.70559
RightShoulder  -0.866568 -5.97504 28.474
RightArm  -15.3232 -13.4589 36.3538
RightForeArm  108.557 71.7383 141.7
RightHand  -0.0115104 -4.4464 0.286624
LeftUpLeg  -1.82302 7.1518 -8.80725
LeftLeg  21.3275 6.07755 1.47765
LeftFoot  -7.49882 -0.360835 12.0487
LeftToes  3.24686e-010 -7.02549e-012 1.39809e-011
275
root  -11.1031 38.8963 9.7923 157.099 81.8352 170.187
RightUpLeg  -10.7722 1.682 -6.71287
RightLeg  64.2965 2.41791 4.93981
RightFoot  4.0112 -0.995443 7.58557
RightToes  2.96859e-009 0 -3.6325e-017
Spine  10.2309 0.466725 -3.12982
Spine1  12.1635 -0.986371 -1.00963
HEad  -2.37941 0.201208 -3.40165
LeftShoulder1  -0.302272 4.35926 -29.1793
LeftArm  -12.9173 9.09561 -36.0679
LeftForeArm  86.7952 -78.0359 -111.268
LeftHand  -0.0296826 5.30348 -3.73577
RightShoulder  -0.831177 -5.90179 28.0571
RightArm  -16.4199 -14.4308 36.5455
RightForeArm  109.68 71.2061 143.012
RightHand  -0.0204506 -5.1134 0.122286
LeftUpLeg  2.37277 7.89884 -6.28864
LeftLeg  19.7948 3.46647 0.184002
LeftFoot  -8.82896 -0.204314 11.731
LeftToes  3.24686e-010 -7.02549e-012 1.39809e-011
276
root  -9.99051 39.0724 9.71595 165.582 80.5529 179.542
RightUpLeg  -11.7915 3.00668 -5.34251
RightLeg  56.7879 2.07449 2.97694
RightFoot  2.86642 -0.812729 6.67056
RightToes  2.96859e-009 0 -3.6325e-017
Spine  11.5759 -0.16537 -2.78198
Spine1  11.4202 -1.9005 0.267737
HEad  -2.74839 0.0749083 -3.16552
LeftShoulder1  -0.310047 4.38849 -28.8851
LeftArm  -12.9411 8.61159 -36.8462
LeftForeArm  87.1074 -78.0505 -111.257
LeftHand  -0.0356956 5.41699 -3.84194
RightShoulder  -0.817653 -5.87482 27.8758
RightArm  -17.0627 -15.2016 36.5147
RightForeArm  110.814 70.5349 144.527
RightHand  -0.0299879 -5.58105 -0.616944
LeftUpLeg  6.00824 8.5473 -4.13034
LeftLeg  18.3552 1.08707 -0.731004
LeftFoot  -10.0056 -0.0777709 11.7808
LeftToes  3.24686e-010 -7.02549e-012 1.39809e-011
277
root  -8.84214 39.1471 9.61592 168.436 79.5034 -177.008
RightUpLeg  -11.9653 4.20748 -4.73575
RightLeg  46.8885 1.77365 1.7183
RightFoot  1.79727 -0.698884 6.17376
RightToes  2.96859e-009 0 -3.6325e-017
Spine  12.1623 -0.578758 -2.50083
Spine1  11.1986 -2.41622 0.911777
HEad  -3.43801 -0.260804 -2.95175
LeftShoulder1  -0.324636 4.42407 -29.1172
LeftArm  -12.8746 7.80309 -37.2031
LeftForeArm  86.1081 -78.1423 -110.133
LeftHand  -0.0292704 5.11518 -4.13799
RightShoulder  -0.828898 -5.91286 27.8026
RightArm  -17.4701 -15.7948 36.121
RightForeArm  110.988 70.0208 145.527
RightHand  -0.028797 -5.2196 -1.09839
LeftUpLeg  9.23796 9.26814 -2.53555
LeftLeg  17.3433 -0.956173 -1.45936
LeftFoot  -11.3847 0.0734719 11.6294
LeftToes  3.24686e-010 -7.02549e-012 1.39809e-011
278
root  -7.65487 39.212 9.46086 170.27 78.6487 -175.044
RightUpLeg  -11.0022 5.21004 -4.30717
RightLeg  34.0205 0.815782 0.45789
RightFoot  1.19769 -0.709264 6.52635
RightToes  2.96859e-009 0 -3.6325e-017
Spine  11.6512 -1.1108 -2.04032
Spine1  11.5445 -2.8741 1.477
HEad  -4.2472 -0.474599 -2.54354
LeftShoulder1  -0.34661 4.48438 -29.1927
LeftArm  -12.7815 7.59644 -37.4209
LeftForeArm  86.8023 -78.1363 -110.435
LeftHand  -0.0255495 5.04854 -4.48265
RightShoulder  -0.817105 -5.89508 27.5598
RightArm  -17.812 -16.2103 36.3587
RightForeArm  111.93 69.6338 146.339
RightHand  -0.0273574 -5.62427 -1.14393
LeftUpLeg  12.3243 9.61921 -1.37648
LeftLeg  15.6512 -2.48406 -1.84581
LeftFoot  -12.4983 0.190951 11.458
LeftToes  3.24686e-010 -7.02549e-012 1.39809e-011
279
root  -6.44353 39.1547 9.37553 168.135 78.7102 -177.654
RightUpLeg  -9.98608 5.40258 -4.22794
RightLeg  20.0733 -0.045786 -0.523833
RightFoot  0.87516 -0.76451 7.18596
RightToes  2.96859e-009 0 -3.6325e-017
Spine  10.505 -1.03893 -2.65394
Spine1  12.007 -2.78939 2.01819
HEad  -4.32849 -0.65695 -2.41241
LeftShoulder1  -0.332911 4.45497 -28.8323
LeftArm  -13.0174 7.30976 -37.9457
LeftForeArm  85.5654 -78.2483 -109.004
LeftHand  -0.0234061 4.98088 -4.60825
RightShoulder  -0.795057 -5.82535 27.626
RightArm  -18.0317 -16.434 36.3612
RightForeArm  112.343 69.3942 146.806
RightHand  -0.028131 -5.43409 -1.17145
LeftUpLeg  14.6389 9.93927 -1.07151
LeftLeg  14.4022 -2.99885 -2.23525
LeftFoot  -13.9152 0.327414 10.805
LeftToes  3.24686e-010 -7.02549e-012 1.39809e-011
